<svg width="947" height="947" viewBox="0 0 947 947" fill="none" xmlns="http://www.w3.org/2000/svg">
<path d="M473.608 105.652C644.517 276.702 624.232 690.039 473.608 840.787C315.331 682.378 308.013 271.385 473.608 105.652Z" fill="black" stroke="white" stroke-width="14" stroke-linejoin="round"/>
<path d="M568.728 118.276C689.542 327.732 562.969 721.735 378.461 828.362C266.576 634.386 365.88 235.503 568.728 118.276Z" fill="black" stroke="white" stroke-width="14" stroke-linejoin="round"/>
<path d="M657.339 155.089C719.825 388.678 495.59 736.496 289.771 791.735C231.904 575.411 431.063 215.821 657.339 155.089Z" fill="black" stroke="white" stroke-width="14" stroke-linejoin="round"/>
<path d="M733.402 213.583C733.302 455.385 426.685 733.315 213.583 733.402C213.676 509.472 499.117 213.681 733.402 213.583Z" fill="black" stroke="white" stroke-width="14" stroke-linejoin="round"/>
<path d="M791.735 289.77C729.055 523.307 360.953 712.408 155.089 657.338C213.137 441.062 565.408 229.227 791.735 289.77Z" fill="black" stroke="white" stroke-width="14" stroke-linejoin="round"/>
<path d="M828.362 378.459C707.374 587.816 302.871 675.201 118.276 568.726C230.321 374.843 625.417 261.401 828.362 378.459Z" fill="black" stroke="white" stroke-width="14" stroke-linejoin="round"/>
<path d="M840.786 473.606C669.735 644.515 256.398 624.23 105.65 473.606C264.059 315.329 675.053 308.011 840.786 473.606Z" fill="black" stroke="white" stroke-width="14" stroke-linejoin="round"/>
</svg>
